<svg width="195" height="139" viewBox="0 0 195 139" fill="none" xmlns="http://www.w3.org/2000/svg">
<path d="M190 136.71H156.15C154.909 136.708 153.72 136.214 152.843 135.337C151.966 134.46 151.472 133.271 151.47 132.03V7.00032C151.47 5.7591 151.963 4.56872 152.84 3.69105C153.718 2.81338 154.909 2.32032 156.15 2.32032H190C190.615 2.319 191.224 2.43914 191.792 2.67387C192.361 2.90859 192.877 3.25328 193.312 3.68812C193.747 4.12296 194.091 4.63941 194.326 5.2078C194.561 5.7762 194.681 6.38536 194.68 7.00032V132C194.684 132.617 194.566 133.229 194.332 133.8C194.099 134.372 193.755 134.891 193.32 135.329C192.885 135.767 192.367 136.114 191.798 136.351C191.228 136.588 190.617 136.71 190 136.71V136.71Z" fill="url(#paint0_linear_3591_1168)"/>
<path d="M33.0004 137.17L2.69042 122C1.58223 121.442 0.740645 120.468 0.350624 119.29C-0.0393969 118.113 0.0540498 116.828 0.61042 115.72L56.7704 3.96972C57.3278 2.86152 58.3023 2.01994 59.4799 1.62992C60.6575 1.2399 61.9417 1.33335 63.0504 1.88972L93.3204 17.0997C93.87 17.3748 94.36 17.7555 94.7625 18.22C95.165 18.6845 95.472 19.2237 95.6661 19.8068C95.8602 20.39 95.9375 21.0057 95.8936 21.6187C95.8497 22.2318 95.6856 22.8301 95.4104 23.3797L39.2404 135.09C38.683 136.188 37.7155 137.021 36.5474 137.411C35.3794 137.8 34.105 137.714 33.0004 137.17V137.17Z" fill="url(#paint1_linear_3591_1168)"/>
<path d="M122.37 134.66L146.37 12.8497C146.609 11.6355 146.359 10.3761 145.673 9.34593C144.987 8.31572 143.922 7.59821 142.71 7.34973L109.5 0.649713C108.896 0.527381 108.274 0.525626 107.669 0.64454C107.064 0.763454 106.488 1.0007 105.975 1.34265C105.463 1.68459 105.022 2.12451 104.68 2.63712C104.337 3.14974 104.1 3.72495 103.98 4.32972L80.0002 126.14C79.7615 127.353 80.0124 128.611 80.6981 129.639C81.3839 130.668 82.4487 131.384 83.6602 131.63L116.87 138.34C118.087 138.578 119.349 138.325 120.38 137.635C121.411 136.946 122.126 135.876 122.37 134.66V134.66Z" fill="url(#paint2_linear_3591_1168)"/>
<defs>
<linearGradient id="paint0_linear_3591_1168" x1="110.36" y1="92.6203" x2="201.79" y2="58.9103" gradientUnits="userSpaceOnUse">
<stop offset="0.02" stop-color="#B02DE9"/>
<stop offset="0.8" stop-color="#6D00CC"/>
</linearGradient>
<linearGradient id="paint1_linear_3591_1168" x1="30.1104" y1="77.2497" x2="128.4" y2="34.7497" gradientUnits="userSpaceOnUse">
<stop stop-color="#FF00FF"/>
<stop offset="0.18" stop-color="#E80DF9"/>
<stop offset="0.54" stop-color="#C024ED"/>
<stop offset="0.73" stop-color="#B02DE9"/>
</linearGradient>
<linearGradient id="paint2_linear_3591_1168" x1="7.18022" y1="108.52" x2="208.66" y2="34.3497" gradientUnits="userSpaceOnUse">
<stop offset="0.02" stop-color="#FF00FF"/>
<stop offset="0.09" stop-color="#E80DF9"/>
<stop offset="0.23" stop-color="#C024ED"/>
<stop offset="0.3" stop-color="#B02DE9"/>
<stop offset="0.42" stop-color="#A42BE3"/>
<stop offset="0.63" stop-color="#8527D5"/>
<stop offset="0.85" stop-color="#6021C3"/>
</linearGradient>
</defs>
</svg>
